<svg width="1080" height="1350" viewBox="0 0 1080 1350" xmlns="http://www.w3.org/2000/svg" font-family="Noto Sans CJK KR">
<rect width="1080" height="1350" fill="#F4EDE0"/>
<text x="110" y="150" font-size="36" font-weight="700" fill="#2F4A3A">밥이지 · 냉장고 털이</text>
<text x="110" y="270" font-size="104" font-weight="900" fill="#1F2A22">남은 재료로</text>
<text x="110" y="390" font-size="104" font-weight="900" fill="#1F2A22">아보카도 에그 볼</text>
<rect x="110" y="430" width="120" height="10" rx="5" fill="#D8553F"/>

<g transform="translate(0,560)">
<circle cx="200" cy="0" r="80" fill="#EADFCB"/>
<ellipse cx="178" cy="6" rx="30" ry="40" fill="#C98A5A"/>
<ellipse cx="226" cy="10" rx="28" ry="36" fill="#FFFFFF"/>
<circle cx="226" cy="14" r="15" fill="#F2D36B"/>
<text x="320" y="-8" font-size="50" font-weight="900" fill="#1F2A22">구운란 2알 반 갈라</text>
<text x="320" y="46" font-size="34" font-weight="500" fill="#6B6B5E">헤일리 비버 · 애니스톤 편</text>
</g>

<g transform="translate(0,760)">
<circle cx="200" cy="0" r="80" fill="#EADFCB"/>
<path d="M200 -52 C236 -52 250 -10 250 14 C250 42 228 56 200 56 C172 56 150 42 150 14 C150 -10 164 -52 200 -52 Z" fill="#3E6B35"/>
<path d="M200 -40 C228 -40 238 -8 238 14 C238 36 222 46 200 46 C178 46 162 36 162 14 C162 -8 172 -40 200 -40 Z" fill="#C8DB8A"/>
<circle cx="200" cy="18" r="17" fill="#8A5A3A"/>
<text x="320" y="-8" font-size="50" font-weight="900" fill="#1F2A22">아보카도 반 개</text>
<text x="320" y="46" font-size="34" font-weight="500" fill="#6B6B5E">숟가락으로 떠서 얹기 · 애니스톤 편</text>
</g>

<g transform="translate(0,960)">
<circle cx="200" cy="0" r="80" fill="#EADFCB"/>
<path d="M186 -56 H214 V-30 L228 -14 V48 H172 V-14 L186 -30 Z" fill="#9AA84A"/>
<rect x="188" y="-64" width="24" height="12" rx="3" fill="#2F4A3A"/>
<circle cx="236" cy="28" r="20" fill="#F2C94C"/>
<circle cx="236" cy="28" r="13" fill="#FBE7A1"/>
<text x="320" y="-8" font-size="50" font-weight="900" fill="#1F2A22">올리브유 + 레몬즙</text>
<text x="320" y="46" font-size="34" font-weight="500" fill="#6B6B5E">한 바퀴 두르고 소금 톡 · 헤일리 편</text>
</g>

<g transform="translate(0,1160)">
<circle cx="200" cy="0" r="80" fill="#EADFCB"/>
<ellipse cx="178" cy="-14" rx="20" ry="28" transform="rotate(-25 178 -14)" fill="#C98A5A"/>
<ellipse cx="222" cy="-10" rx="18" ry="26" transform="rotate(20 222 -10)" fill="#B5763F"/>
<circle cx="200" cy="30" r="22" fill="#D9A86C"/>
<text x="320" y="-8" font-size="50" font-weight="900" fill="#1F2A22">견과 한 줌 솔솔</text>
<text x="320" y="46" font-size="34" font-weight="500" fill="#6B6B5E">하루견과 남은 거 · 조코비치 편</text>
</g>

<text x="110" y="1300" font-size="30" font-weight="500" fill="#6B6B5E">지난 헤일리·애니스톤·조코비치 편 재료로</text>
<text x="970" y="1300" text-anchor="end" font-size="30" font-weight="700" fill="#2F4A3A">@iambob.easy</text>
</svg>
